<svg width="60" height="60" viewBox="0 0 60 60" fill="none" xmlns="http://www.w3.org/2000/svg">
<path d="M43.418 26.158V13.522C43.418 13.2568 43.3126 13.0024 43.1251 12.8149C42.9376 12.6273 42.6832 12.522 42.418 12.522C39.661 12.522 37.418 10.279 37.418 7.52197C37.418 7.25676 37.3126 7.0024 37.1251 6.81487C36.9376 6.62733 36.6832 6.52197 36.418 6.52197H12.999C12.7338 6.52197 12.4794 6.62733 12.2919 6.81487C12.1044 7.0024 11.999 7.25676 11.999 7.52197C11.9977 8.84748 11.4706 10.1183 10.5334 11.0557C9.59625 11.9931 8.3255 12.5204 7 12.522C6.73478 12.522 6.48043 12.6273 6.29289 12.8149C6.10536 13.0024 6 13.2568 6 13.522V32.042C6 42.359 23.553 50.34 24.3 50.675C24.4285 50.7325 24.5677 50.7622 24.7085 50.7622C24.8493 50.7622 24.9885 50.7325 25.117 50.675C25.199 50.639 26.991 49.832 29.44 48.425C31.985 51.508 35.835 53.477 40.136 53.477C47.781 53.477 54 47.257 54 39.613C54 33.101 49.48 27.638 43.418 26.158ZM24.71 48.659C22.112 47.417 8 40.287 8 32.042V14.45C9.49462 14.2318 10.8789 13.537 11.9469 12.4689C13.015 11.4009 13.7098 10.0166 13.928 8.52197H35.489C35.7074 10.0167 36.4024 11.401 37.4706 12.469C38.5389 13.5371 39.9233 14.2318 41.418 14.45V25.813C40.995 25.774 40.568 25.748 40.136 25.748C32.491 25.748 26.272 31.968 26.272 39.612C26.272 42.236 27.018 44.684 28.29 46.779C27.1198 47.4487 25.9257 48.0758 24.71 48.659ZM40.136 51.477C33.594 51.477 28.272 46.155 28.272 39.613C28.272 33.071 33.594 27.749 40.136 27.749C46.678 27.749 52 33.071 52 39.613C52 46.155 46.678 51.477 40.136 51.477Z" fill="white"/>
<path d="M40.1357 34.5809C41.2467 34.5809 42.1507 35.4849 42.1507 36.5969C42.1507 36.8621 42.2561 37.1164 42.4436 37.304C42.6312 37.4915 42.8855 37.5969 43.1507 37.5969C43.416 37.5969 43.6703 37.4915 43.8579 37.304C44.0454 37.1164 44.1507 36.8621 44.1507 36.5969C44.1507 34.7299 42.8647 33.1699 41.1357 32.7219V32.0279C41.1357 31.7627 41.0304 31.5083 40.8428 31.3208C40.6553 31.1332 40.401 31.0279 40.1357 31.0279C39.8705 31.0279 39.6162 31.1332 39.4286 31.3208C39.2411 31.5083 39.1357 31.7627 39.1357 32.0279V32.7219C37.4057 33.1699 36.1197 34.7299 36.1197 36.5969C36.1208 37.6617 36.5443 38.6825 37.2972 39.4354C38.0501 40.1884 39.071 40.6118 40.1357 40.6129C41.2467 40.6129 42.1507 41.5169 42.1507 42.6289C42.1507 43.7409 41.2467 44.6449 40.1357 44.6449C39.6012 44.6444 39.0888 44.4318 38.7108 44.0538C38.3328 43.6759 38.1203 43.1634 38.1197 42.6289C38.1197 42.3637 38.0144 42.1093 37.8269 41.9218C37.6393 41.7342 37.385 41.6289 37.1197 41.6289C36.8545 41.6289 36.6002 41.7342 36.4126 41.9218C36.2251 42.1093 36.1197 42.3637 36.1197 42.6289C36.1197 44.4959 37.4057 46.0559 39.1357 46.5039V47.1979C39.1357 47.4631 39.2411 47.7174 39.4286 47.905C39.6162 48.0925 39.8705 48.1979 40.1357 48.1979C40.401 48.1979 40.6553 48.0925 40.8428 47.905C41.0304 47.7174 41.1357 47.4631 41.1357 47.1979V46.5039C42.8647 46.0559 44.1507 44.4959 44.1507 42.6289C44.1497 41.5643 43.7264 40.5435 42.9737 39.7907C42.221 39.0378 41.2004 38.6142 40.1357 38.6129C39.6012 38.6123 39.0888 38.3998 38.7108 38.0218C38.3328 37.6439 38.1203 37.1314 38.1197 36.5969C38.1197 35.4849 39.0237 34.5809 40.1357 34.5809ZM29.6627 22.8099C29.4752 22.6224 29.2209 22.5171 28.9557 22.5171C28.6906 22.5171 28.4363 22.6224 28.2487 22.8099L21.6107 29.4479L18.6587 26.4959C18.5665 26.4004 18.4562 26.3242 18.3341 26.2718C18.2121 26.2194 18.0809 26.1918 17.9481 26.1906C17.8154 26.1895 17.6837 26.2148 17.5608 26.2651C17.4379 26.3153 17.3262 26.3896 17.2323 26.4835C17.1385 26.5774 17.0642 26.689 17.0139 26.8119C16.9636 26.9348 16.9383 27.0665 16.9395 27.1993C16.9406 27.3321 16.9682 27.4633 17.0206 27.5853C17.073 27.7073 17.1492 27.8176 17.2447 27.9099L20.9037 31.5689C21.0913 31.7563 21.3456 31.8617 21.6107 31.8617C21.8759 31.8617 22.1302 31.7563 22.3177 31.5689L29.6627 24.2239C29.8502 24.0363 29.9555 23.782 29.9555 23.5169C29.9555 23.2517 29.8502 22.9974 29.6627 22.8099Z" fill="white"/>
</svg>
