<svg width="50" height="50" viewBox="0 0 50 50" fill="none" xmlns="http://www.w3.org/2000/svg">
<path d="M43.8542 37.8905C44.0485 37.8905 44.2348 37.8134 44.3721 37.676C44.5095 37.5387 44.5867 37.3524 44.5867 37.1581V19.58C44.5867 18.7058 44.2459 17.8115 43.6273 17.062L38.1954 10.4806C37.9188 10.1443 37.5928 9.85196 37.2284 9.61367C37.2501 9.38984 37.2625 9.16377 37.2625 8.93555V0.732422C37.2625 0.538172 37.1854 0.351877 37.048 0.214521C36.9107 0.0771656 36.7244 0 36.5301 0C36.3359 0 36.1496 0.0771656 36.0122 0.214521C35.8749 0.351877 35.7977 0.538172 35.7977 0.732422C35.7977 0.732422 35.7962 9.00537 35.7956 9.04033C35.5868 9.00321 35.3751 8.98448 35.1629 8.98438H25.6903C25.0234 8.98438 24.3697 9.17148 23.7844 9.51533C23.7589 9.52437 23.7338 9.5348 23.7094 9.54658L16.5697 13.0243C15.7765 13.4234 15.1468 14.0859 14.7884 14.8982C14.7845 14.9071 14.7808 14.916 14.7773 14.925L11.8253 22.4125C11.7573 22.5925 11.7629 22.7921 11.8408 22.9681C11.9188 23.1441 12.0628 23.2823 12.2419 23.3529C12.4209 23.4235 12.6206 23.4208 12.7976 23.3453C12.9747 23.2699 13.115 23.1278 13.1881 22.9498L16.1343 15.4768C16.3559 14.9817 16.7433 14.5762 17.2188 14.3375L20.9911 12.5001L17.2258 17.0621C16.6621 17.7451 16.3641 18.6159 16.3641 19.5802V44.8731C16.3641 45.1677 16.39 45.4561 16.437 45.7371L8.88989 42.393C7.185 41.6376 6.41235 39.6311 7.16782 37.9201L7.17729 37.8978L11.951 26.0341C12.0235 25.8539 12.0215 25.6522 11.9454 25.4735C11.8692 25.2948 11.7252 25.1537 11.545 25.0812C11.3648 25.0086 11.1631 25.0107 10.9844 25.0868C10.8057 25.163 10.6646 25.307 10.592 25.4872L5.8225 37.3398C4.75004 39.7861 5.85786 42.6516 8.29643 43.732L17.1464 47.6535C17.1573 47.6583 17.1683 47.6618 17.1792 47.666C18.0775 49.0695 19.6304 49.9999 21.3934 49.9999H39.4598C42.2389 49.9999 44.5868 47.6521 44.5868 44.8729V40.5761C44.5868 40.3818 44.5096 40.1955 44.3722 40.0582C44.2349 39.9208 44.0486 39.8437 43.8543 39.8437C43.6601 39.8437 43.4738 39.9208 43.3364 40.0582C43.1991 40.1955 43.1219 40.3818 43.1219 40.5761V44.8729C43.1219 46.858 41.4449 48.5351 39.4598 48.5351H21.3934C19.428 48.5351 17.8289 46.8923 17.8289 44.8729V19.58C17.8289 18.9513 18.0061 18.4178 18.3556 17.9944L23.7875 11.413C24.2931 10.8005 24.9867 10.4491 25.6903 10.4491H35.1629C35.3009 10.4491 35.4384 10.4631 35.5743 10.4895C35.1158 12.053 33.98 13.3577 32.4463 14.0115C32.0453 13.3407 31.3121 12.8905 30.4753 12.8905C29.2099 12.8905 28.1804 13.92 28.1804 15.1854C28.1804 16.4509 29.2099 17.4804 30.4753 17.4804C31.6455 17.4804 32.6133 16.5997 32.7525 15.4664C34.725 14.7203 36.2166 13.1395 36.8812 11.2099C36.9458 11.2747 37.0073 11.3425 37.0657 11.413L42.4976 17.9945C42.9001 18.4822 43.1219 19.0453 43.1219 19.5801V37.1582C43.1219 37.2544 43.1408 37.3496 43.1776 37.4385C43.2144 37.5273 43.2684 37.6081 43.3364 37.6761C43.4044 37.7441 43.4851 37.798 43.574 37.8348C43.6628 37.8716 43.7581 37.8905 43.8542 37.8905ZM30.4753 16.0155C30.0176 16.0155 29.6453 15.6432 29.6453 15.1854C29.6453 14.7277 30.0176 14.3554 30.4753 14.3554C30.9331 14.3554 31.3054 14.7277 31.3054 15.1854C31.3054 15.6432 30.9331 16.0155 30.4753 16.0155Z" fill="white"/>
<path d="M24.1281 38.9648C24.2243 38.965 24.3195 38.9461 24.4084 38.9093C24.4973 38.8724 24.578 38.8184 24.6459 38.7503L37.1459 26.2503C37.2833 26.1129 37.3604 25.9267 37.3604 25.7324C37.3604 25.5382 37.2833 25.3519 37.1459 25.2145C37.0086 25.0772 36.8223 25.0001 36.6281 25.0001C36.4338 25.0001 36.2475 25.0772 36.1102 25.2145L23.6102 37.7146C23.1432 38.1498 23.5015 38.987 24.1281 38.9648ZM25.6906 31.25C27.4406 31.25 28.8644 29.8262 28.8644 28.0762C28.8644 26.3262 27.4406 24.9023 25.6906 24.9023H25.5929C23.8429 24.9023 22.4191 26.3262 22.4191 28.0762C22.4191 29.8262 23.8429 31.25 25.5929 31.25H25.6906ZM23.8839 28.0762C23.8839 27.1339 24.6506 26.3672 25.5929 26.3672H25.6906C26.6328 26.3672 27.3995 27.1339 27.3995 28.0762C27.3995 29.0185 26.6328 29.7852 25.6906 29.7852H25.5929C24.6506 29.7852 23.8839 29.0185 23.8839 28.0762ZM35.1632 38.9648H35.2609C37.0109 38.9648 38.4347 37.541 38.4347 35.791C38.4347 34.041 37.0109 32.6172 35.2609 32.6172H35.1632C33.4132 32.6172 31.9894 34.041 31.9894 35.791C31.9894 37.541 33.4132 38.9648 35.1632 38.9648ZM35.1632 34.082H35.2609C36.2031 34.082 36.9698 34.8487 36.9698 35.791C36.9698 36.7333 36.2031 37.5 35.2609 37.5H35.1632C34.2209 37.5 33.4542 36.7333 33.4542 35.791C33.4542 34.8487 34.2209 34.082 35.1632 34.082Z" fill="white"/>
</svg>
