<svg width="30" height="30" viewBox="0 0 30 30" fill="none" xmlns="http://www.w3.org/2000/svg">
<g clip-path="url(#clip0_5_463)">
<path fill-rule="evenodd" clip-rule="evenodd" d="M6.93797 7.96098C7.08809 8.28072 7.40701 8.48551 7.7608 8.48551H12.1805V10.0467C12.1805 10.549 12.5879 10.9559 13.0917 10.9559C13.5929 10.9559 14.0003 10.549 14.0003 10.0467V8.48551H14.4185C14.9223 8.48551 15.327 8.07863 15.327 7.57613C15.327 7.07416 14.9223 6.66728 14.4185 6.66728H14.0003V1.21144C14.0003 0.829003 13.7618 0.487518 13.4026 0.357557C13.0435 0.226776 12.6388 0.334764 12.3949 0.627968L7.06395 6.9926C6.83607 7.26301 6.78785 7.64099 6.93797 7.96098ZM30 14.9424C30 18.9477 28.4404 22.7168 25.608 25.5491C22.7754 28.3817 19.0059 29.9424 15 29.9424C10.9941 29.9424 7.22461 28.3817 4.39201 25.5491C1.55965 22.7168 0 18.9477 0 14.9424C0 14.1897 0.610313 13.5784 1.36312 13.5784C2.11734 13.5784 2.72625 14.1884 2.72625 14.9424C2.72625 21.7088 8.23389 27.215 14.9999 27.215C21.7661 27.215 27.2737 21.7088 27.2737 14.9424C27.2737 8.80508 22.6918 3.56767 16.6029 2.77367C15.858 2.67652 15.3322 1.99021 15.4283 1.24566C15.5246 0.500409 16.2116 -0.0280481 16.9564 0.0692175C20.5467 0.538026 23.839 2.29619 26.2381 5.00744C28.6656 7.75074 30 11.2794 30 14.9424ZM12.1804 3.7131V6.66723H9.70928L12.1804 3.7131ZM16.7824 23.0243C16.5117 23.447 16.6349 24.0095 17.0584 24.2799C17.2038 24.3737 17.3732 24.4235 17.5462 24.4236C17.8464 24.4236 18.1385 24.2759 18.3127 24.0049L23.9733 15.1696C24.1529 14.8893 24.1636 14.5342 24.0054 14.2428C23.9268 14.0997 23.8112 13.9804 23.6707 13.8972C23.5302 13.8141 23.37 13.7701 23.2068 13.77H18.0393C17.5354 13.77 17.1308 14.1769 17.1308 14.6792C17.1308 15.1814 17.5355 15.5883 18.0393 15.5883H21.545L16.7824 23.0243ZM21.5423 6.31883C21.8961 6.67396 21.8961 7.24965 21.5423 7.60484L8.14137 21.0058C7.96184 21.1832 7.73133 21.2719 7.49813 21.2719C7.26498 21.2719 7.03178 21.1832 6.85488 21.0058C6.50109 20.6507 6.50109 20.0752 6.85488 19.7202L20.2559 6.31883C20.6096 5.96369 21.1859 5.96369 21.5423 6.31883ZM5.59518 4.4143C5.82568 3.57166 5.68096 2.93644 5.16363 2.52687C4.58203 2.06826 3.61986 1.98764 2.9659 2.34271C2.47008 2.6126 2.25029 3.07894 2.31463 3.7284C2.36021 4.2285 1.9957 4.67293 1.49449 4.72062C0.995977 4.76779 0.551074 4.40246 0.502793 3.90289C0.371484 2.5199 0.950391 1.3693 2.09754 0.746151C3.38139 0.046073 5.14494 0.195663 6.29203 1.10129C7.38557 1.96724 7.77152 3.34947 7.3507 4.89324C7.06658 5.93533 6.091 6.69517 4.96529 7.57531C4.35422 8.0508 3.69756 8.56267 3.14812 9.1376H6.91383C7.41504 9.1376 7.82244 9.54441 7.82244 10.0467C7.82244 10.549 7.41504 10.9559 6.91383 10.9559H1.38188C1.22792 10.9556 1.07657 10.9162 0.941967 10.8415C0.807368 10.7667 0.693928 10.6591 0.61226 10.5286C0.530593 10.3981 0.483367 10.249 0.475003 10.0952C0.466638 9.94152 0.497408 9.78819 0.564434 9.64959C1.30418 8.1248 2.655 7.07123 3.84498 6.14228C4.64367 5.51826 5.47189 4.87338 5.59518 4.4143Z" fill="white"/>
</g>
<defs>
<clipPath id="clip0_5_463">
<rect width="30" height="30" fill="white"/>
</clipPath>
</defs>
</svg>
